<?xml version="1.0" encoding="utf-8"?>
<!-- Generator: Adobe Illustrator 27.5.0, SVG Export Plug-In . SVG Version: 6.00 Build 0)  -->
<svg version="1.1" id="katman_1" xmlns="http://www.w3.org/2000/svg" xmlns:xlink="http://www.w3.org/1999/xlink" x="0px" y="0px"
	 viewBox="0 0 841.89 595.28" style="enable-background:new 0 0 841.89 595.28;" xml:space="preserve">
<style type="text/css">
	.st0{fill:#D40511;}
</style>
<g>
	<g>
		<g>
			<polygon class="st0" points="99.11,284.87 186.18,284.87 181.42,291.34 99.11,291.34 99.11,284.87 			"/>
			<polygon class="st0" points="99.11,272.86 195.02,272.86 190.26,279.32 99.11,279.32 99.11,272.86 			"/>
			<polygon class="st0" points="99.11,296.89 177.34,296.89 172.6,303.31 99.11,303.31 99.11,296.89 			"/>
		</g>
		<g>
			<polygon class="st0" points="742.95,291.34 656.22,291.34 660.97,284.87 742.95,284.87 742.95,291.34 			"/>
			<polygon class="st0" points="742.95,303.31 647.4,303.32 652.13,296.89 742.95,296.89 742.95,303.31 			"/>
			<polygon class="st0" points="669.81,272.86 742.95,272.86 742.95,279.33 665.05,279.33 669.81,272.86 			"/>
		</g>
	</g>
	<g>
		<path class="st0" d="M183.44,303.31l41.32-56.13h51.27c5.67,0,5.59,2.15,2.82,5.9c-2.81,3.81-7.6,10.36-10.46,14.23
			c-1.45,1.96-4.08,5.55,4.63,5.55h68.69c-5.71,7.83-24.24,30.45-57.51,30.45L183.44,303.31L183.44,303.31z"/>
		<path class="st0" d="M420.06,272.86l-22.4,30.46h-59.1c0,0,22.39-30.45,22.41-30.45L420.06,272.86L420.06,272.86z"/>
		<path class="st0" d="M505.53,272.86l-22.42,30.45h-59.08c0,0,22.4-30.45,22.42-30.45C446.45,272.86,505.53,272.86,505.53,272.86z"
			/>
		<path class="st0" d="M524.75,272.86c0,0-4.32,5.9-6.41,8.74c-7.42,10.03-0.86,21.71,23.36,21.71h94.88l22.41-30.45H524.75
			L524.75,272.86z"/>
	</g>
	<g>
		<path class="st0" d="M212.33,212.27l-20.57,27.95h112.11c5.67,0,5.59,2.15,2.82,5.9c-2.81,3.81-7.52,10.43-10.38,14.3
			c-1.45,1.96-4.08,5.54,4.63,5.54h45.85c0,0,7.39-10.06,13.58-18.46c8.43-11.44,0.73-35.23-29.4-35.23
			C330.97,212.27,212.33,212.27,212.33,212.27z"/>
		<polygon class="st0" points="510.6,265.97 366.04,265.97 405.57,212.27 464.66,212.27 442,243.06 468.37,243.06 491.05,212.27 
			550.12,212.27 510.6,265.97 		"/>
		<path class="st0" d="M631.94,212.27l-39.52,53.69h-62.61c0,0,39.54-53.69,39.55-53.69H631.94L631.94,212.27z"/>
	</g>
</g>
<g>
	<path class="st0" d="M522.34,371.24c-5.9,0-10.49-1.81-13.77-5.43c-3.27-3.62-4.91-8.64-4.91-15.06v-3.75
		c0-4.26,0.8-7.92,2.39-10.95c1.59-3.04,3.84-5.36,6.72-6.98c2.89-1.62,6.27-2.42,10.15-2.42c3.1,0,5.88,0.53,8.34,1.58
		c2.46,1.06,4.59,2.6,6.4,4.62l-5.68,6.01c-1.42-1.42-2.87-2.41-4.33-2.97c-1.47-0.56-2.99-0.84-4.59-0.84
		c-3.1,0-5.48,1.05-7.14,3.13c-1.66,2.09-2.49,5.16-2.49,9.21v2.97c0,4.05,0.77,7.14,2.3,9.27c1.53,2.13,3.76,3.2,6.69,3.2
		c2.67,0,4.73-0.88,6.17-2.65c1.44-1.77,2.16-4.05,2.16-6.85h-8.53v-7.88h18.03v7.5c0,3.84-0.73,7.12-2.2,9.85
		c-1.46,2.74-3.53,4.83-6.2,6.27S526,371.24,522.34,371.24L522.34,371.24z"/>
	<path class="st0" d="M547.41,370.27v-32.96h8.85v8.21c0.47-1.46,1.11-2.85,1.91-4.17c0.8-1.31,1.83-2.39,3.1-3.23
		c1.27-0.84,2.85-1.26,4.75-1.26c0.39,0,0.74,0.01,1.07,0.03c0.32,0.02,0.72,0.08,1.2,0.16v8.66c-0.35-0.04-0.72-0.07-1.13-0.1
		c-0.41-0.02-0.81-0.03-1.2-0.03c-2.37,0-4.31,0.45-5.82,1.36s-2.63,1.87-3.36,2.91v20.42L547.41,370.27L547.41,370.27z"/>
	<path class="st0" d="M587.41,371.05c-4.91,0-8.78-1.42-11.6-4.26c-2.82-2.84-4.23-6.74-4.23-11.7v-2.59c0-4.95,1.41-8.85,4.23-11.7
		c2.82-2.84,6.69-4.27,11.6-4.27c4.91,0,8.78,1.42,11.6,4.27c2.82,2.84,4.23,6.74,4.23,11.7v2.59c0,4.95-1.41,8.85-4.23,11.7
		C596.18,369.63,592.32,371.05,587.41,371.05z M587.41,363.23c2.03,0,3.61-0.69,4.75-2.07s1.71-3.47,1.71-6.27v-2.2
		c0-2.8-0.57-4.89-1.71-6.27c-1.14-1.38-2.72-2.07-4.75-2.07c-2.03,0-3.61,0.69-4.75,2.07c-1.14,1.38-1.71,3.47-1.71,6.27v2.2
		c0,2.8,0.57,4.89,1.71,6.27C583.8,362.54,585.38,363.23,587.41,363.23z"/>
	<path class="st0" d="M619.78,370.92c-3.23,0-5.71-1.14-7.43-3.42c-1.72-2.28-2.58-5.51-2.58-9.69v-20.48h9.37v19.9
		c0,1.77,0.38,3.17,1.13,4.2c0.75,1.03,1.95,1.55,3.59,1.55c1.2,0,2.26-0.29,3.17-0.87c0.91-0.58,1.64-1.32,2.2-2.23v-22.55h9.37
		v32.96h-8.85v-5.75c-0.99,1.9-2.32,3.44-3.97,4.62S622.11,370.92,619.78,370.92L619.78,370.92z"/>
	<path class="st0" d="M647.11,382.55v-45.23h8.85V343c0.9-1.98,2.21-3.53,3.91-4.65c1.7-1.12,3.65-1.68,5.85-1.68
		c3.7,0,6.6,1.41,8.69,4.23c2.09,2.82,3.13,6.69,3.13,11.6v2.59c0,4.91-1.04,8.78-3.13,11.6c-2.09,2.82-4.99,4.23-8.69,4.23
		c-4.27,0-7.35-1.98-9.24-5.95v17.58L647.11,382.55L647.11,382.55z M662.17,344.55c-2.37,0-4.27,1.01-5.69,3.04v12.47
		c1.42,1.98,3.32,2.97,5.69,2.97c1.94,0,3.42-0.7,4.46-2.1c1.03-1.4,1.55-3.41,1.55-6.04v-2.2c0-2.63-0.52-4.64-1.55-6.04
		C665.59,345.25,664.11,344.55,662.17,344.55L662.17,344.55z"/>
</g>
</svg>
