<?xml version="1.0" encoding="utf-8"?>
<!-- Generator: Adobe Illustrator 24.0.0, SVG Export Plug-In . SVG Version: 6.00 Build 0)  -->
<svg version="1.1"
	 id="svg2" xmlns:cc="http://creativecommons.org/ns#" xmlns:dc="http://purl.org/dc/elements/1.1/" xmlns:inkscape="http://www.inkscape.org/namespaces/inkscape" xmlns:rdf="http://www.w3.org/1999/02/22-rdf-syntax-ns#" xmlns:sodipodi="http://sodipodi.sourceforge.net/DTD/sodipodi-0.dtd" xmlns:svg="http://www.w3.org/2000/svg"
	 xmlns="http://www.w3.org/2000/svg" xmlns:xlink="http://www.w3.org/1999/xlink" x="0px" y="0px" viewBox="0 0 197.4 145.4"
	 style="enable-background:new 0 0 197.4 145.4;" xml:space="preserve">
<style type="text/css">
	.st0{fill-rule:evenodd;clip-rule:evenodd;fill:#3F3F42;}
	.st1{fill-rule:evenodd;clip-rule:evenodd;fill:#DC0032;}
	.st2{fill-rule:evenodd;clip-rule:evenodd;fill:#DB0032;}
	.st3{fill-rule:evenodd;clip-rule:evenodd;fill:#DA0032;}
	.st4{fill-rule:evenodd;clip-rule:evenodd;fill:#D90032;}
	.st5{fill-rule:evenodd;clip-rule:evenodd;fill:#D80032;}
	.st6{fill-rule:evenodd;clip-rule:evenodd;fill:#D70032;}
	.st7{fill-rule:evenodd;clip-rule:evenodd;fill:#D60032;}
	.st8{fill-rule:evenodd;clip-rule:evenodd;fill:#D50032;}
	.st9{fill-rule:evenodd;clip-rule:evenodd;fill:#D40032;}
	.st10{fill-rule:evenodd;clip-rule:evenodd;fill:#D30032;}
	.st11{fill-rule:evenodd;clip-rule:evenodd;fill:#D20032;}
	.st12{fill-rule:evenodd;clip-rule:evenodd;fill:#D10032;}
	.st13{fill-rule:evenodd;clip-rule:evenodd;fill:#D00032;}
	.st14{fill-rule:evenodd;clip-rule:evenodd;fill:#CF0032;}
	.st15{fill-rule:evenodd;clip-rule:evenodd;fill:#CE0032;}
	.st16{fill-rule:evenodd;clip-rule:evenodd;fill:#CD0032;}
	.st17{fill-rule:evenodd;clip-rule:evenodd;fill:#CC0032;}
	.st18{fill-rule:evenodd;clip-rule:evenodd;fill:#CB0032;}
	.st19{fill-rule:evenodd;clip-rule:evenodd;fill:#CA0032;}
	.st20{fill-rule:evenodd;clip-rule:evenodd;fill:#C90032;}
	.st21{fill-rule:evenodd;clip-rule:evenodd;fill:#C80033;}
	.st22{fill-rule:evenodd;clip-rule:evenodd;fill:#C70033;}
	.st23{fill-rule:evenodd;clip-rule:evenodd;fill:#C60033;}
	.st24{fill-rule:evenodd;clip-rule:evenodd;fill:#C50033;}
	.st25{fill-rule:evenodd;clip-rule:evenodd;fill:#C40033;}
	.st26{fill-rule:evenodd;clip-rule:evenodd;fill:#C30033;}
	.st27{fill-rule:evenodd;clip-rule:evenodd;fill:#C20033;}
	.st28{fill-rule:evenodd;clip-rule:evenodd;fill:#C10033;}
	.st29{fill-rule:evenodd;clip-rule:evenodd;fill:#C00033;}
	.st30{fill-rule:evenodd;clip-rule:evenodd;fill:#BF0033;}
	.st31{fill-rule:evenodd;clip-rule:evenodd;fill:#BE0033;}
	.st32{fill-rule:evenodd;clip-rule:evenodd;fill:#BD0033;}
	.st33{fill-rule:evenodd;clip-rule:evenodd;fill:#BC0033;}
	.st34{fill-rule:evenodd;clip-rule:evenodd;fill:#BB0033;}
</style>
<sodipodi:namedview  bordercolor="#666666" borderopacity="1" gridtolerance="10" guidetolerance="10" id="namedview207" inkscape:current-layer="svg2" inkscape:cx="88.582677" inkscape:cy="37.204724" inkscape:document-units="mm" inkscape:pageopacity="0" inkscape:pageshadow="2" inkscape:window-height="480" inkscape:window-maximized="0" inkscape:window-width="640" inkscape:window-x="0" inkscape:window-y="0" inkscape:zoom="1.7215556" objecttolerance="10" pagecolor="#ffffff" showgrid="false">
	</sodipodi:namedview>
<path id="path7" inkscape:connector-curvature="0" class="st0" d="M119,89.9c-2.6,0.7-5.9,1-8.8,1c-7.5,0-12.4-3.9-12.4-11
	c0-6.8,4.6-11.2,11.3-11.2c1.5,0,3.1,0.2,4.1,0.7v-9.8h5.8V89.9z M113.2,74.4c-0.9-0.4-2.2-0.7-3.6-0.7c-3.5,0-5.9,2.2-5.9,5.9
	c0,4,2.5,6.3,6.7,6.3c0.7,0,1.9,0,2.8-0.2V74.4z M166.8,89.9c-2.6,0.7-5.9,1-8.9,1c-7.4,0-12.4-3.9-12.4-11
	c0-6.8,4.6-11.2,11.3-11.2c1.6,0,3.1,0.2,4.1,0.7v-9.8h5.9V89.9z M161,74.4c-0.9-0.4-2.1-0.7-3.5-0.7c-3.6,0-5.9,2.2-5.9,5.9
	c0,4,2.6,6.3,6.7,6.3c0.7,0,1.8,0,2.8-0.2V74.4z M128.2,74.4c1-0.4,2.3-0.5,3.5-0.5c3.6,0,6.1,2,6.1,5.7c0,4.3-2.8,6.3-6.4,6.4v5
	h0.3c7.6,0,12.1-4.1,12.1-11.5c0-6.7-4.8-10.7-11.9-10.7c-3.6,0-7.1,0.8-9.5,1.8V99h5.9L128.2,74.4z"/>
<path id="path9" inkscape:connector-curvature="0" class="st1" d="M77.7,55.7L77.7,55.7L77.7,55.7L77.7,55.7z"/>
<path id="path11" inkscape:connector-curvature="0" class="st1" d="M76.3,54.9l1,1.1l0.5-0.3L76.3,54.9z"/>
<path id="path13" inkscape:connector-curvature="0" class="st1" d="M74.9,54.1l1.9,2.2l0.7-0.4l-0.7-0.8
	C76.7,55.1,74.9,54.1,74.9,54.1z"/>
<path id="path15" inkscape:connector-curvature="0" class="st1" d="M73.4,53.3l2.8,3.2l0.7-0.4l-1.6-1.9
	C75.2,54.3,73.4,53.3,73.4,53.3z"/>
<path id="path17" inkscape:connector-curvature="0" class="st1" d="M71.9,52.5l3.7,4.3l0.7-0.4l-2.6-3L71.9,52.5z M79.1,60.2
	l-0.4,0.2l0.4,0.5C79.1,60.9,79.1,60.2,79.1,60.2z"/>
<path id="path19" inkscape:connector-curvature="0" class="st1" d="M70.5,51.8l4.6,5.4l0.7-0.4l-3.5-4.1L70.5,51.8z M78.8,60.3
	l-0.7,0.4l0.9,1.1v-1.1L78.8,60.3L78.8,60.3z"/>
<path id="path21" inkscape:connector-curvature="0" class="st1" d="M69,51l5.6,6.5l0.7-0.4l-4.4-5.2C70.8,51.9,69,51,69,51z
	 M78.3,60.6L77.6,61l1.4,1.7v-1.1C79.1,61.5,78.3,60.6,78.3,60.6z"/>
<path id="path23" inkscape:connector-curvature="0" class="st1" d="M67.5,50.2l6.5,7.6l0.7-0.4l-5.4-6.2
	C69.3,51.2,67.5,50.2,67.5,50.2z M77.7,60.9l-0.7,0.4l2,2.3v-1.1C79.1,62.5,77.7,60.9,77.7,60.9z"/>
<path id="path25" inkscape:connector-curvature="0" class="st1" d="M66.1,49.4l7.4,8.6l0.7-0.4l-6.3-7.3
	C67.9,50.4,66.1,49.4,66.1,49.4z M77.2,61.2l-0.7,0.4l2.5,2.9v-1.1C79.1,63.4,77.2,61.2,77.2,61.2z"/>
<path id="path27" inkscape:connector-curvature="0" class="st1" d="M64.6,48.6l8.4,9.7l0.7-0.4l-7.2-8.4
	C66.5,49.6,64.6,48.6,64.6,48.6z M76.7,61.5L76,61.9l3.1,3.5v-1.1L76.7,61.5z"/>
<path id="path29" inkscape:connector-curvature="0" class="st1" d="M63.2,47.9l9.3,10.9l0.7-0.4L65,48.8L63.2,47.9z M76.1,61.8
	l-0.7,0.4l3.6,4.2v-1.1C79.1,65.3,76.1,61.8,76.1,61.8z"/>
<path id="path31" inkscape:connector-curvature="0" class="st1" d="M61.7,47.1L71.9,59l0.7-0.4L63.5,48L61.7,47.1z M75.6,62.1
	l-0.7,0.4l4.1,4.8v-1.1L75.6,62.1z"/>
<path id="path33" inkscape:connector-curvature="0" class="st1" d="M60.2,46.3l11.2,13l0.7-0.4l-10-11.6L60.2,46.3z M75.1,62.4
	l-0.7,0.4l4.6,5.5v-1.2C79.1,67.1,75.1,62.4,75.1,62.4z"/>
<path id="path35" inkscape:connector-curvature="0" class="st1" d="M58.8,45.5l12.1,14.1l0.7-0.4l-11-12.7
	C60.6,46.5,58.8,45.5,58.8,45.5z M74.6,62.7l-0.7,0.4l5.2,6.1V68C79.1,68,74.6,62.7,74.6,62.7z"/>
<path id="path37" inkscape:connector-curvature="0" class="st1" d="M57.3,44.7l13.1,15.2l0.7-0.4L59.1,45.7L57.3,44.7z M74,63
	l-0.7,0.4l5.7,6.7v-1.1C79.1,68.9,74,63,74,63z"/>
<path id="path39" inkscape:connector-curvature="0" class="st1" d="M55.8,43.9l14,16.3l0.7-0.4L57.7,44.9L55.8,43.9z M73.5,63.3
	l-0.7,0.4l6.2,7.3v-1.2C79.1,69.8,73.5,63.3,73.5,63.3z"/>
<path id="path41" inkscape:connector-curvature="0" class="st1" d="M54.4,43.2l14.9,17.3l0.7-0.4l-13.7-16L54.4,43.2L54.4,43.2z
	 M72.9,63.6L72.3,64l6.8,7.9v-1.1L72.9,63.6z"/>
<path id="path43" inkscape:connector-curvature="0" class="st1" d="M53.4,42.9L53.4,42.9l15.3,17.9l0.7-0.4L54.8,43.4l-0.4-0.2
	C54.1,43,53.8,42.9,53.4,42.9z M72.4,63.9l-0.7,0.4l7.3,8.5v-1.1C79.1,71.7,72.4,63.9,72.4,63.9z"/>
<path id="path45" inkscape:connector-curvature="0" class="st1" d="M53.4,42.9c-0.2,0-0.5,0.1-0.7,0.1l15.5,18.1l0.7-0.4L53.6,42.9
	C53.6,42.9,53.5,42.9,53.4,42.9z M71.9,64.2l-0.7,0.4l7.8,9.2v-1.2C79.1,72.6,71.9,64.2,71.9,64.2z"/>
<path id="path47" inkscape:connector-curvature="0" class="st1" d="M52.9,43c-0.1,0.1-0.3,0.1-0.4,0.2l-0.4,0.2l15.5,18.1l0.7-0.4
	C68.4,61.1,52.9,43,52.9,43z M71.4,64.5L70.7,65l8.3,9.7v-1.1L71.4,64.5z"/>
<path id="path49" inkscape:connector-curvature="0" class="st1" d="M52.3,43.2l-0.7,0.4l15.5,18.1l0.7-0.4
	C67.8,61.4,52.3,43.2,52.3,43.2z M70.8,64.8l-0.7,0.4l8.9,10.3v-1.1C79.1,74.4,70.8,64.8,70.8,64.8z"/>
<path id="path51" inkscape:connector-curvature="0" class="st1" d="M51.8,43.5l-0.7,0.4L66.6,62l0.7-0.4
	C67.3,61.7,51.8,43.5,51.8,43.5z M70.3,65.1l-0.7,0.4l9.4,11v-1.1C79.1,75.4,70.3,65.1,70.3,65.1z"/>
<path id="path53" inkscape:connector-curvature="0" class="st1" d="M51.2,43.8l-0.7,0.4l15.5,18.1l0.7-0.4
	C66.8,62,51.2,43.8,51.2,43.8z M69.8,65.4l-0.7,0.4l10,11.6v-1.1L69.8,65.4z"/>
<path id="path55" inkscape:connector-curvature="0" class="st1" d="M50.7,44.1L50,44.5l15.5,18.1l0.7-0.4
	C66.2,62.3,50.7,44.1,50.7,44.1z M69.2,65.7l-0.7,0.4l10.5,12.2v-1.1C79.1,77.2,69.2,65.7,69.2,65.7z"/>
<path id="path57" inkscape:connector-curvature="0" class="st1" d="M50.1,44.4l-0.7,0.4L65,62.9l0.7-0.4
	C65.7,62.6,50.1,44.4,50.1,44.4z M68.7,66l-0.7,0.4l11,12.8v-1.1C79.1,78.2,68.7,66,68.7,66z"/>
<path id="path59" inkscape:connector-curvature="0" class="st1" d="M49.6,44.7l-0.7,0.4l15.6,18.1l0.7-0.4
	C65.2,62.9,49.6,44.7,49.6,44.7z M68.2,66.4l-0.7,0.4l11.5,13.4v-1.1L68.2,66.4z"/>
<path id="path61" inkscape:connector-curvature="0" class="st1" d="M49.1,45l-0.7,0.4L64,63.5l0.7-0.4C64.7,63.2,49.1,45,49.1,45z
	 M67.7,66.7L67,67.1l12.1,14.1V80C79.1,80,67.7,66.7,67.7,66.7z"/>
<path id="path63" inkscape:connector-curvature="0" class="st1" d="M48.5,45.3l-0.7,0.4l15.6,18.2l0.7-0.4L48.5,45.3z M67.1,67
	l-0.7,0.4l12.6,14.7v-1.1L67.1,67z"/>
<path id="path65" inkscape:connector-curvature="0" class="st1" d="M48,45.6l-0.7,0.4l15.6,18.2l0.7-0.4L48,45.6z M66.6,67.3
	l-0.7,0.4L79.1,83v-1.1C79.1,81.8,66.6,67.3,66.6,67.3z"/>
<path id="path67" inkscape:connector-curvature="0" class="st1" d="M47.4,45.9l-0.7,0.4l15.6,18.2l0.7-0.4
	C63,64.1,47.4,45.9,47.4,45.9z M66,67.6L65.4,68l13.7,16v-1.2C79.1,82.7,66,67.6,66,67.6z"/>
<path id="path69" inkscape:connector-curvature="0" class="st1" d="M46.9,46.2l-0.7,0.4l15.6,18.2l0.7-0.4
	C62.5,64.4,46.9,46.2,46.9,46.2z M65.6,67.9l-0.7,0.4l14.2,16.6v-1.1C79.1,83.7,65.6,67.9,65.6,67.9z"/>
<path id="path71" inkscape:connector-curvature="0" class="st1" d="M46.4,46.4l-0.7,0.4l15.7,18.3l0.7-0.4
	C62,64.7,46.4,46.4,46.4,46.4z M65,68.2l-0.7,0.4l14.7,17.2v-1.1L65,68.2z"/>
<path id="path73" inkscape:connector-curvature="0" class="st1" d="M45.8,46.7l-0.7,0.4l15.8,18.4c0.1-0.1,0.1-0.2,0.2-0.2l0.4-0.2
	C61.5,65,45.8,46.7,45.8,46.7z M64.5,68.5l-0.7,0.4l15.1,17.6c0.1-0.2,0.1-0.4,0.1-0.5v-0.5L64.5,68.5L64.5,68.5z"/>
<path id="path75" inkscape:connector-curvature="0" class="st1" d="M45.3,47l-0.7,0.4l16.1,18.8v-0.2c0-0.2,0.1-0.4,0.2-0.6L45.3,47
	z M63.9,68.8l-0.5,0.3c-0.1,0-0.1,0.1-0.2,0.1l15.4,17.9c0.2-0.2,0.3-0.5,0.4-0.7L63.9,68.8z"/>
<path id="path77" inkscape:connector-curvature="0" class="st1" d="M44.7,47.3L44,47.7l16.7,19.4v-1.2
	C60.7,65.9,44.7,47.3,44.7,47.3z M62.3,68.9l16,18.7c0.2-0.1,0.4-0.4,0.5-0.5L63.4,69.1c-0.2,0.1-0.6,0.1-0.8,0L62.3,68.9z"/>
<path id="path79" inkscape:connector-curvature="0" class="st1" d="M44.2,47.6L43.5,48l34.2,39.8l0.5-0.2c0.1-0.1,0.1-0.1,0.2-0.2
	L62.6,69.1h-0.1l-1.4-0.8c-0.1-0.1-0.2-0.2-0.3-0.3l0,0c-0.1-0.2-0.1-0.3-0.2-0.4v-0.7C60.7,66.9,44.2,47.6,44.2,47.6z"/>
<path id="path81" inkscape:connector-curvature="0" class="st1" d="M43.7,47.9l-0.7,0.4l34.2,39.8l0.7-0.4L43.7,47.9z"/>
<path id="path83" inkscape:connector-curvature="0" class="st1" d="M43.1,48.2l-0.7,0.4l34.3,39.9l0.7-0.4L43.1,48.2z"/>
<path id="path85" inkscape:connector-curvature="0" class="st1" d="M42.6,48.5l-0.7,0.4l34.3,39.9l0.7-0.4L42.6,48.5z"/>
<path id="path87" inkscape:connector-curvature="0" class="st1" d="M42,48.8l-0.7,0.4L75.6,89l0.7-0.4L42,48.8z"/>
<path id="path89" inkscape:connector-curvature="0" class="st1" d="M41.4,49.1l-0.7,0.4l34.3,40l0.7-0.4L41.4,49.1z"/>
<path id="path91" inkscape:connector-curvature="0" class="st1" d="M40.9,49.4l-0.7,0.4l34.3,40l0.7-0.4L40.9,49.4z"/>
<path id="path93" inkscape:connector-curvature="0" class="st1" d="M40.4,49.7L39.7,50L74,90l0.7-0.4L40.4,49.7z"/>
<path id="path95" inkscape:connector-curvature="0" class="st1" d="M39.8,49.9l-0.7,0.4l34.3,40l0.7-0.4L39.8,49.9z"/>
<path id="path97" inkscape:connector-curvature="0" class="st1" d="M39.3,50.2l-0.7,0.4l34.3,40l0.7-0.4L39.3,50.2z"/>
<path id="path99" inkscape:connector-curvature="0" class="st1" d="M38.7,50.5l-0.7,0.4l16.7,19.4l0.5,0.4c0.2,0.1,0.5,0.4,0.5,0.7
	v0.1l16.6,19.4l0.7-0.4L38.7,50.5z"/>
<path id="path101" inkscape:connector-curvature="0" class="st1" d="M38.2,50.8l-0.7,0.4l15.7,18.3l2,1.1L38.2,50.8z M55.7,71.2
	c0,0.1,0.1,0.1,0.1,0.2v1l16.1,18.8l0.7-0.4C72.5,90.8,55.7,71.2,55.7,71.2z"/>
<path id="path103" inkscape:connector-curvature="0" class="st1" d="M37.7,51.1L37,51.5l14.6,17.1l2,1.1
	C53.6,69.6,37.7,51.1,37.7,51.1z M55.8,72.2v1.1l15.6,18.2l0.7-0.4L55.8,72.2z"/>
<path id="path105" inkscape:connector-curvature="0" class="st1" d="M37.1,51.4l-0.7,0.4l13.7,15.9l1.9,1.1L37.1,51.4z M55.8,73.1
	v1.2l15.1,17.5l0.7-0.4L55.8,73.1z"/>
<path id="path107" inkscape:connector-curvature="0" class="st1" d="M36.6,51.6L35.9,52l12.7,14.8l1.9,1.1L36.6,51.6z M55.8,74v1.1
	l14.5,16.9l0.7-0.4L55.8,74z"/>
<path id="path109" inkscape:connector-curvature="0" class="st1" d="M36,51.9l-0.7,0.4L47,65.9l1.9,1.1C48.9,67,36,51.9,36,51.9z
	 M55.8,74.9v1.1l14,16.3l0.7-0.4L55.8,74.9z"/>
<path id="path111" inkscape:connector-curvature="0" class="st1" d="M35.5,52.2l-0.7,0.4L45.5,65l1.9,1.1L35.5,52.2z M55.8,75.8V77
	l13.4,15.7l0.7-0.4C69.9,92.3,55.8,75.8,55.8,75.8z"/>
<path id="path113" inkscape:connector-curvature="0" class="st1" d="M35,52.5l-0.7,0.4l9.6,11.2l1.9,1.1C45.8,65.2,35,52.5,35,52.5z
	 M55.8,76.8v1.1l13,15.1l0.7-0.4C69.4,92.6,55.8,76.8,55.8,76.8z"/>
<path id="path115" inkscape:connector-curvature="0" class="st1" d="M34.4,52.8l-0.7,0.4l8.6,10l2,1.1
	C44.3,64.3,34.4,52.8,34.4,52.8z M55.8,77.7v1.1l12.4,14.5l0.7-0.4C68.9,92.9,55.8,77.7,55.8,77.7z"/>
<path id="path117" inkscape:connector-curvature="0" class="st2" d="M33.9,53.1l-0.7,0.4l7.6,8.8l2,1.1
	C42.8,63.5,33.9,53.1,33.9,53.1z M49.6,72.6l1.6,1.8v-0.7c0-0.1-0.1-0.3-0.2-0.4L49.6,72.6z M55.8,78.6v1.2l11.9,13.9l0.7-0.4
	L55.8,78.6z"/>
<path id="path119" inkscape:connector-curvature="0" class="st1" d="M33.3,53.4l-0.7,0.4l6.5,7.7l2,1.1
	C41.2,62.6,33.3,53.4,33.3,53.4z M48,71.7l3.1,3.6v-1.1L50,72.8C50,72.8,48,71.7,48,71.7z M55.8,79.5v1.1l11.3,13.3l0.7-0.4
	C67.8,93.6,55.8,79.5,55.8,79.5z"/>
<path id="path121" inkscape:connector-curvature="0" class="st1" d="M32.8,53.7L32.1,54l5.6,6.5l1.9,1.1
	C39.6,61.7,32.8,53.7,32.8,53.7z M46.5,70.8l4.7,5.4v-1.1l-2.7-3.2C48.5,71.9,46.5,70.8,46.5,70.8z M55.8,80.4v1.1l10.8,12.7
	l0.7-0.4C67.2,93.9,55.8,80.4,55.8,80.4z"/>
<path id="path123" inkscape:connector-curvature="0" class="st1" d="M32.3,54l-0.7,0.4l4.6,5.3l1.9,1.1C38.1,60.8,32.3,54,32.3,54z
	 M45,69.9l6.2,7.2V76l-4.3-5C46.9,71,45,69.9,45,69.9z M55.8,81.4v1.1l10.3,12l0.7-0.4L55.8,81.4z"/>
<path id="path125" inkscape:connector-curvature="0" class="st1" d="M31.7,54.3l-0.7,0.4l3.5,4.1l1.9,1.1
	C36.5,59.9,31.7,54.3,31.7,54.3z M43.4,69l7.7,9v-1.1l-5.8-6.7L43.4,69z M55.8,82.3v1.1l9.8,11.4l0.7-0.4
	C66.2,94.5,55.8,82.3,55.8,82.3z"/>
<path id="path127" inkscape:connector-curvature="0" class="st1" d="M31.2,54.6l-0.7,0.4l2.5,2.9L35,59L31.2,54.6z M41.9,68.1
	L51.2,79v-1.1l-7.4-8.6L41.9,68.1z M55.8,83.2v1.1L65,95.1l0.7-0.4L55.8,83.2z"/>
<path id="path129" inkscape:connector-curvature="0" class="st1" d="M30.6,54.9L30,55.2l1.5,1.7l2,1.1
	C33.5,58.1,30.6,54.9,30.6,54.9z M40.3,67.3l10.9,12.6v-1.1l-8.9-10.4L40.3,67.3z M55.8,84.2v1.1l8.7,10.1l0.7-0.4
	C65.1,95.1,55.8,84.2,55.8,84.2z"/>
<path id="path131" inkscape:connector-curvature="0" class="st1" d="M30.1,55.1l-0.7,0.4l0.5,0.7l2,1.1
	C31.9,57.2,30.1,55.1,30.1,55.1z M38.7,66.4l12.4,14.5v-1.2L40.7,67.5C40.7,67.5,38.7,66.4,38.7,66.4z M55.8,85.1v1.1l8.2,9.6
	l0.7-0.4C64.6,95.4,55.8,85.1,55.8,85.1z"/>
<path id="path133" inkscape:connector-curvature="0" class="st1" d="M29.6,55.4l-0.4,0.2l1.2,0.7C30.3,56.3,29.6,55.4,29.6,55.4z
	 M37.2,65.5l14,16.3v-1.1l-12-14C39.2,66.6,37.2,65.5,37.2,65.5z M55.8,86v1.2l7.7,8.9l0.7-0.4L55.8,86z"/>
<path id="path135" inkscape:connector-curvature="0" class="st1" d="M35.7,64.6l15.5,18.1v-1.1L37.6,65.7L35.7,64.6z M55.8,86.9v1.1
	l7.1,8.3l0.7-0.4L55.8,86.9z"/>
<path id="path137" inkscape:connector-curvature="0" class="st1" d="M34.1,63.8l17,19.9v-1.2L36,64.8L34.1,63.8z M55.8,87.8V89
	l6.6,7.7l0.7-0.4L55.8,87.8z"/>
<path id="path139" inkscape:connector-curvature="0" class="st1" d="M32.6,62.9l18.6,21.7v-1.1L34.5,63.9
	C34.5,63.9,32.6,62.9,32.6,62.9z M55.8,88.7v1.2l6.1,7.1l0.7-0.4C62.5,96.6,55.8,88.7,55.8,88.7z"/>
<path id="path141" inkscape:connector-curvature="0" class="st2" d="M31,62l20.2,23.5v-1.1L32.9,63.1L31,62z M55.8,89.7v1.1l5.5,6.5
	l0.7-0.4L55.8,89.7z"/>
<path id="path143" inkscape:connector-curvature="0" class="st3" d="M29.4,61.1l21.7,25.3v-1.1l-19.8-23L29.4,61.1z M55.8,90.6v1.1
	l5,5.9l0.7-0.4L55.8,90.6z"/>
<path id="path145" inkscape:connector-curvature="0" class="st4" d="M27.9,60.2l23.3,27.1v-1.1L29.9,61.3
	C29.9,61.3,27.9,60.2,27.9,60.2z M55.8,91.5v1.2l4.5,5.2l0.7-0.4C60.9,97.5,55.8,91.5,55.8,91.5z"/>
<path id="path147" inkscape:connector-curvature="0" class="st5" d="M27.8,60.2V61l23.3,27.2V87L28.3,60.4L27.8,60.2z M55.8,92.4
	v0.7c0,0.1-0.1,0.2-0.1,0.3l4.1,4.7l0.7-0.4C60.4,97.8,55.8,92.4,55.8,92.4z"/>
<path id="path149" inkscape:connector-curvature="0" class="st6" d="M27.8,60.8V62l23.3,27.2V88L27.8,60.8z M55.7,93.3
	c-0.1,0.2-0.2,0.5-0.4,0.5l-0.1,0.1l4,4.6l0.7-0.4C59.9,98.1,55.7,93.3,55.7,93.3z"/>
<path id="path151" inkscape:connector-curvature="0" class="st7" d="M27.8,61.7v1.1L51.2,90v-1.1L27.8,61.7z M55.4,93.8
	C55.4,93.9,55.4,93.9,55.4,93.8l-0.7,0.4l4,4.6l0.7-0.4L55.4,93.8L55.4,93.8z"/>
<path id="path153" inkscape:connector-curvature="0" class="st8" d="M27.8,62.6v1.1l23.3,27.2v-1.1L27.8,62.6z M54.9,94.1l-0.7,0.4
	l4,4.6l0.7-0.4L54.9,94.1z"/>
<path id="path155" inkscape:connector-curvature="0" class="st9" d="M27.8,63.6v1.1l23.3,27.2v-1.1L27.8,63.6z M54.3,94.4l-0.4,0.2
	c-0.1,0.1-0.2,0.1-0.4,0.1l4.1,4.7l0.7-0.4L54.3,94.4L54.3,94.4z"/>
<path id="path157" inkscape:connector-curvature="0" class="st10" d="M27.8,64.5v1.1l23.3,27.2v-1.1L27.8,64.5z M52.5,94.4l4.6,5.3
	l0.7-0.4l-4-4.6c-0.1,0-0.2,0.1-0.2,0.1h-0.1c-0.2,0-0.3-0.1-0.4-0.1L52.5,94.4L52.5,94.4z"/>
<path id="path159" inkscape:connector-curvature="0" class="st11" d="M27.8,65.4v1.2l28.7,33.5l0.7-0.4l-4.3-5l-1.3-0.7
	c-0.2-0.1-0.4-0.4-0.4-0.7v-0.6L27.8,65.4z"/>
<path id="path161" inkscape:connector-curvature="0" class="st12" d="M27.8,66.3v1.1L56,100.4l0.7-0.4L27.8,66.3z"/>
<path id="path163" inkscape:connector-curvature="0" class="st13" d="M27.8,67.2v1.1l27.7,32.3l0.7-0.4L27.8,67.2z"/>
<path id="path165" inkscape:connector-curvature="0" class="st14" d="M27.8,68.1v1.2L55,101l0.7-0.4L27.8,68.1z"/>
<path id="path167" inkscape:connector-curvature="0" class="st15" d="M27.8,69.1v1.1l26.6,31l0.7-0.4L27.8,69.1z"/>
<path id="path169" inkscape:connector-curvature="0" class="st16" d="M27.8,70v1.1l26,30.4c0.2-0.1,0.4-0.1,0.5-0.2l0.2-0.1L27.8,70
	z"/>
<path id="path171" inkscape:connector-curvature="0" class="st17" d="M27.8,70.9v1.2l25.3,29.4c0.1,0,0.2,0,0.4,0
	c0.2,0,0.4,0,0.5-0.1L27.8,70.9z"/>
<path id="path173" inkscape:connector-curvature="0" class="st18" d="M27.8,71.9V73l23.9,27.8l0.8,0.5c0.2,0.1,0.5,0.2,0.7,0.2
	L27.8,71.9z"/>
<path id="path175" inkscape:connector-curvature="0" class="st19" d="M27.8,72.8v1.1l22.3,26l2,1.1L27.8,72.8z"/>
<path id="path177" inkscape:connector-curvature="0" class="st20" d="M27.8,73.7v1.1L48.6,99l2,1.1L27.8,73.7z"/>
<path id="path179" inkscape:connector-curvature="0" class="st21" d="M27.8,74.6v1.1L47,98.1l1.9,1.1L27.8,74.6z"/>
<path id="path181" inkscape:connector-curvature="0" class="st22" d="M27.8,75.5v1.1l17.6,20.6l1.9,1.1L27.8,75.5z"/>
<path id="path183" inkscape:connector-curvature="0" class="st23" d="M27.8,76.5v1.1l16,18.7l2,1.1L27.8,76.5z"/>
<path id="path185" inkscape:connector-curvature="0" class="st24" d="M27.8,77.4v1.1l14.5,16.9l2,1.1L27.8,77.4z"/>
<path id="path187" inkscape:connector-curvature="0" class="st25" d="M27.8,78.3v1.1l12.9,15.1l2,1.1C42.7,95.6,27.8,78.3,27.8,78.3
	z"/>
<path id="path189" inkscape:connector-curvature="0" class="st26" d="M27.8,79.2v1.1l11.3,13.2l2,1.1L27.8,79.2z"/>
<path id="path191" inkscape:connector-curvature="0" class="st27" d="M27.8,80.1v1.1l9.8,11.4l2,1.1L27.8,80.1z"/>
<path id="path193" inkscape:connector-curvature="0" class="st28" d="M27.8,81v1.2l8.2,9.5l1.9,1.1L27.8,81z"/>
<path id="path195" inkscape:connector-curvature="0" class="st29" d="M27.8,82v1.1l6.6,7.7l2,1.1L27.8,82z"/>
<path id="path197" inkscape:connector-curvature="0" class="st30" d="M27.8,82.9V84l5,5.9l2,1.1L27.8,82.9z"/>
<path id="path199" inkscape:connector-curvature="0" class="st31" d="M27.8,83.8V85l3.5,4l2,1.1L27.8,83.8z"/>
<path id="path201" inkscape:connector-curvature="0" class="st32" d="M27.8,84.8v1.1l1.9,2.2l2,1.1L27.8,84.8z"/>
<path id="path203" inkscape:connector-curvature="0" class="st33" d="M27.8,85.7V86c0,0.6,0.4,1.3,0.9,1.6l1.4,0.8
	C30.2,88.4,27.8,85.7,27.8,85.7z"/>
<path id="path205" inkscape:connector-curvature="0" class="st34" d="M28.2,87c0.1,0.1,0.2,0.2,0.3,0.3L28.2,87z"/>
</svg>
