<?xml version="1.0" encoding="utf-8"?>
<!-- Generator: Adobe Illustrator 26.0.3, SVG Export Plug-In . SVG Version: 6.00 Build 0)  -->
<svg version="1.0" id="katman_1" xmlns="http://www.w3.org/2000/svg" xmlns:xlink="http://www.w3.org/1999/xlink" x="0px" y="0px"
	 viewBox="0 0 600 450" style="enable-background:new 0 0 600 450;" xml:space="preserve">
<style type="text/css">
	.st0{fill-rule:evenodd;clip-rule:evenodd;fill:#341A13;}
	.st1{fill:#341A13;}
	.st2{fill:#FAB317;}
</style>
<g>
	<circle class="st0" cx="300.1" cy="225.4" r="152.1"/>
	<g>
		<path class="st1" d="M300.9,301.2c1.4-0.7,37.1-16.2,48.4-25.5c11.7-9.7,17.9-23.4,17.9-40V158l-1-0.3
			c-28.5-15.5-63.9-14.5-65.6-14.5c-1.4,0-36.7-1-65.2,14.5l-0.7,0.3V236c0,16.6,6.2,30.4,17.9,40
			C263.8,285.3,299.5,300.8,300.9,301.2"/>
		<path class="st2" d="M300.9,302.9c0,0-37.8-16.6-49.4-25.9c-12.4-10.3-18.2-24.5-18.2-40.7v-80.7c29.9-16.2,67.6-14.8,67.6-14.8
			s37.8-1.4,67.6,14.8V236c0,16.2-5.8,30.4-18.2,40.7C338.6,286.3,300.9,302.9,300.9,302.9L300.9,302.9z M238.7,236.3
			c0,15.2,5.5,27.6,16.1,36.2c9.6,7.9,38.1,20.7,46,24.1c7.9-3.4,36.7-16.6,46-24.1c10.6-8.6,16.1-21.4,16.1-36.2V157
			c-39.8-3.8-87.2-1.7-124.3,32.8L238.7,236.3L238.7,236.3z"/>
		<path class="st2" d="M339,224.9c5.1,3.1,7.2,5.2,7.6,9c0,4.1-2.7,6.6-7.2,6.6c-3.8,0-8.2-2.1-11.3-4.8v11c3.8,2.1,8.2,3.8,13,3.8
			c11.7,0,17.2-8.3,17.2-15.9c0.3-6.9-1.7-12.4-11.7-18.3c-4.5-2.8-7.9-4.5-7.9-8.6c0-4.1,3.8-5.9,6.9-5.9c4.1,0,8.2,2.4,10.6,4.8
			v-10.3c-2.1-1.7-6.5-4.1-13-3.8c-7.9,0.3-16.1,5.9-16.1,15.5C327.3,214.6,329.4,219.4,339,224.9z M298.5,249.8
			c1,0.3,2.7,0.7,5.5,0.7c13.4,0,20.9-12.1,20.9-29.3c0-17.6-7.9-28.3-22-28.3c-6.5,0-11.7,1.4-16.1,4.1v77.9h11.7
			C298.5,274.9,298.5,249.8,298.5,249.8z M298.5,202.9c1-0.3,2.7-1,4.1-1c6.9,0,9.6,5.5,9.6,19c0,13.1-3.4,19.3-10.3,19.3
			c-1.7,0-3.1-0.3-3.8-0.7v-36.6C298.1,202.9,298.5,202.9,298.5,202.9z M262.4,250.5c7.2,0,13.4-1.7,17.9-4.8v-52.1h-12v45.2
			c-1.4,1-3.1,1.4-5.5,1.4c-5.5,0-6.2-5.2-6.2-8.3v-38.3h-12v37.6C244.5,243.9,250.7,250.5,262.4,250.5z M342.4,297v7.9h1.4v-3.1
			h0.3l2.1,3.1h1.7c0,0-2.1-3.1-2.4-3.4c1-0.3,1.7-1,1.7-2.1c0-1-0.7-2.4-2.7-2.4H342.4L342.4,297z M344.5,298.1c1,0,1.4,0.7,1.4,1
			c0,0.7-0.3,1.4-1.7,1.4h-0.3v-2.4L344.5,298.1L344.5,298.1z"/>
		<path class="st2" d="M350,300.8c0,2.8-2.4,5.2-5.2,5.2c-2.7,0-5.1-2.4-5.1-5.2c0-2.8,2.4-5.2,5.1-5.2
			C347.9,295.6,350,298.1,350,300.8 M344.8,294.3c-3.6,0-6.5,2.9-6.5,6.5c0,0,0,0,0,0c0,3.4,2.7,6.6,6.5,6.6c3.6,0,6.5-2.9,6.5-6.5
			c0,0,0,0,0,0C351.3,297.4,348.2,294.3,344.8,294.3"/>
	</g>
</g>
</svg>
